<svg width="101" height="100" viewBox="0 0 101 100" fill="none" xmlns="http://www.w3.org/2000/svg">
<path d="M50.4999 8.33301C73.5124 8.33301 92.1666 26.9872 92.1666 49.9997C92.1666 73.0122 73.5124 91.6663 50.4999 91.6663C27.4874 91.6663 8.83325 73.0122 8.83325 49.9997C8.83325 26.9872 27.4874 8.33301 50.4999 8.33301ZM50.4999 16.6663C41.6594 16.6663 33.1809 20.1782 26.9297 26.4294C20.6785 32.6807 17.1666 41.1591 17.1666 49.9997C17.1666 58.8402 20.6785 67.3187 26.9297 73.5699C33.1809 79.8211 41.6594 83.333 50.4999 83.333C59.3405 83.333 67.8189 79.8211 74.0701 73.5699C80.3214 67.3187 83.8333 58.8402 83.8333 49.9997C83.8333 41.1591 80.3214 32.6807 74.0701 26.4294C67.8189 20.1782 59.3405 16.6663 50.4999 16.6663ZM50.4999 29.1663C54.8857 29.168 59.1591 30.5537 62.7113 33.1261C66.2634 35.6985 68.9132 39.3262 70.2831 43.4926C71.6529 47.6589 71.673 52.1513 70.3404 56.3298C69.0078 60.5082 66.3905 64.1595 62.8615 66.7635C59.3324 69.3674 55.0715 70.7913 50.686 70.8321C46.3004 70.8729 42.0138 69.5287 38.4368 66.9908C34.8599 64.453 32.1751 60.8511 30.7649 56.6982C29.3548 52.5453 29.2912 48.0533 30.5832 43.8622C31.5579 46.0401 33.2511 47.8173 35.3793 48.8962C37.5076 49.9751 39.9418 50.2903 42.2747 49.7891C44.6076 49.2879 46.6975 48.0006 48.1948 46.1427C49.6921 44.2849 50.5059 41.9691 50.4999 39.583C50.5005 37.5766 49.9216 35.6128 48.8328 33.9275C47.744 32.2422 46.1917 30.9072 44.3624 30.083C46.3512 29.4734 48.4198 29.1644 50.4999 29.1663Z" fill="#183A23"/>
</svg>
