<svg width="101" height="100" viewBox="0 0 101 100" fill="none" xmlns="http://www.w3.org/2000/svg">
<path d="M94.25 36.7188C94.25 64.0625 53.707 86.1953 51.9805 87.1094C51.5254 87.3542 51.0167 87.4823 50.5 87.4823C49.9833 87.4823 49.4746 87.3542 49.0195 87.1094C47.293 86.1953 6.75 64.0625 6.75 36.7188C6.75724 30.2978 9.31117 24.1418 13.8515 19.6015C18.3918 15.0612 24.5478 12.5072 30.9688 12.5C39.0352 12.5 46.0977 15.9687 50.5 21.832C54.9023 15.9687 61.9648 12.5 70.0312 12.5C76.4522 12.5072 82.6082 15.0612 87.1485 19.6015C91.6888 24.1418 94.2428 30.2978 94.25 36.7188Z" fill="#DC143C"/>
</svg>
