<svg id="Layer_1" data-name="Layer 1" xmlns="http://www.w3.org/2000/svg" viewBox="0 0 443.96 444"><defs><style>.cls-1,.cls-2{fill:none;stroke:#231f20;stroke-miterlimit:10;}.cls-1{stroke-width:8px;}.cls-2{stroke-width:4px;}</style></defs><rect class="cls-1" x="4" y="4" width="435.96" height="436"/><path class="cls-2" d="M382.44,304.61c-7.52,41.37-15.59,118.14,11.22,207.3,39.1,130,127.46,203.54,160.89,228.7" transform="translate(-345.46 -300.61)"/><path class="cls-2" d="M730.48,740.61a226.75,226.75,0,0,0,22.18-50.72c51.9-174.83-129.41-357.61-157.57-385.28" transform="translate(-345.46 -300.61)"/><path class="cls-2" d="M349.46,576.68a1640.28,1640.28,0,0,0,167.61,13.76,1643.34,1643.34,0,0,0,268.35-13.76" transform="translate(-345.46 -300.61)"/><path class="cls-2" d="M349.46,564.44A2323.69,2323.69,0,0,0,644,585.86c49.1.43,96.29-.71,141.38-3.06" transform="translate(-345.46 -300.61)"/><path class="cls-2" d="M349.46,608.8c46.79-55.54,279.5-325.76,417-267a100.22,100.22,0,0,1,19,10.71" transform="translate(-345.46 -300.61)"/><path class="cls-2" d="M349.46,590.44c39.18-39.73,316.3-317.42,414.67-254,8.09,5.22,15.42,13,21.29,24.48" transform="translate(-345.46 -300.61)"/><path class="cls-2" d="M349.46,499.41h0A386.89,386.89,0,0,1,628,304.61" transform="translate(-345.46 -300.61)"/><path class="cls-2" d="M349.46,509.36a386.92,386.92,0,0,1,105.65-127c74.36-57.74,150.65-72.95,186.64-77.76" transform="translate(-345.46 -300.61)"/><path class="cls-2" d="M349.46,481.05a494.57,494.57,0,0,1,70.47-117.8c20.3-25.17,36.3-41.55,55.05-57.9" transform="translate(-345.46 -300.61)"/><path class="cls-2" d="M422.22,740.61C408.86,723,324.3,607.55,358,462c18.78-81.07,65.5-133.8,89.44-157.34" transform="translate(-345.46 -300.61)"/><path class="cls-2" d="M423,304.61c-7.51,17-16.12,34.86-26,53.28a769.47,769.47,0,0,1-47.52,77.26" transform="translate(-345.46 -300.61)"/><path class="cls-2" d="M349.46,367.07c23.2-13.57,110-60.58,223.45-40.54,130.31,23,199.33,117.37,212.51,136.16" transform="translate(-345.46 -300.61)"/><path class="cls-2" d="M358,304.61A717.67,717.67,0,0,1,594.79,443.74C707,543,761,654,785.42,715.14" transform="translate(-345.46 -300.61)"/><path class="cls-2" d="M394.68,740.61a745.83,745.83,0,0,1,222.55-436" transform="translate(-345.46 -300.61)"/><path class="cls-2" d="M404.54,740.61a509.75,509.75,0,0,1,10.83-139c16.64-76,46.7-129.13,69.57-168.78A729.57,729.57,0,0,1,579,304.61" transform="translate(-345.46 -300.61)"/><path class="cls-2" d="M785.42,448.92c-73,7.94-151.1,13.91-233.93,16.83-70.79,2.5-138.26,2.54-202,.77" transform="translate(-345.46 -300.61)"/><path class="cls-2" d="M349.46,458.87a1525.54,1525.54,0,0,1,436,50.49" transform="translate(-345.46 -300.61)"/><path class="cls-2" d="M785.42,367.84c-28.64,47-60.83,96-97,146.11A2245.85,2245.85,0,0,1,501,740.61" transform="translate(-345.46 -300.61)"/><path class="cls-2" d="M349.46,728.14c30-4.41,214.18-34.56,318.3-200.42,56.1-89.38,63.88-178.22,64.5-223.11" transform="translate(-345.46 -300.61)"/><path class="cls-2" d="M689.94,304.61a641.73,641.73,0,0,1-6.89,77.76c-24.52,163-107.31,284.17-171.34,358.24" transform="translate(-345.46 -300.61)"/><path class="cls-2" d="M785.42,408.38a786,786,0,0,1-216.34,211.9,783.24,783.24,0,0,1-219.62,99.45" transform="translate(-345.46 -300.61)"/><path class="cls-2" d="M349.46,701.37a283.79,283.79,0,0,0,127.07,39.24" transform="translate(-345.46 -300.61)"/><path class="cls-2" d="M566,304.61a1154.72,1154.72,0,0,1,46.41,233.31,1154.62,1154.62,0,0,1,1,202.69" transform="translate(-345.46 -300.61)"/><path class="cls-2" d="M349.46,540.47a975.94,975.94,0,0,1,436-168.92" transform="translate(-345.46 -300.61)"/><path class="cls-2" d="M349.46,416A662.17,662.17,0,0,0,735.32,740.61" transform="translate(-345.46 -300.61)"/><path class="cls-2" d="M349.46,506a678.47,678.47,0,0,1,436-7.76" transform="translate(-345.46 -300.61)"/><path class="cls-2" d="M349.46,625.63A1194.54,1194.54,0,0,0,623.14,531.8a1190.51,1190.51,0,0,0,162.28-95.37" transform="translate(-345.46 -300.61)"/><path class="cls-2" d="M349.46,614.41a391.07,391.07,0,0,0,118.65,97.92,383,383,0,0,0,68.34,28.28" transform="translate(-345.46 -300.61)"/><path class="cls-2" d="M349.46,638.89a347.22,347.22,0,0,0,33.21,34.77,357.18,357.18,0,0,0,106.86,67" transform="translate(-345.46 -300.61)"/><path class="cls-2" d="M349.46,671.53a404.09,404.09,0,0,0,171.18,69.08" transform="translate(-345.46 -300.61)"/><path class="cls-2" d="M785.42,546.08a498.89,498.89,0,0,1-84.77,92.3C627,700.61,550.9,727.94,503.3,740.61" transform="translate(-345.46 -300.61)"/><path class="cls-2" d="M429.87,740.61c39.16-1.16,125.46-9.05,214.68-65A428.67,428.67,0,0,0,785.42,530.78" transform="translate(-345.46 -300.61)"/><path class="cls-2" d="M349.46,351.26a531.44,531.44,0,0,1,168.12-46.65" transform="translate(-345.46 -300.61)"/><path class="cls-2" d="M349.46,331.88a56.9,56.9,0,0,1,13.1-14.79c14.48-11.46,30.55-12.43,36.71-12.48" transform="translate(-345.46 -300.61)"/><path class="cls-2" d="M627.22,740.61c16.8-15.86,174.57-169.16,133.6-344.47-6-25.46-17.48-57.36-40.79-91.53" transform="translate(-345.46 -300.61)"/><path class="cls-2" d="M682.8,304.61c14.25,20.5,87.31,129.94,57.62,270-18.15,85.67-66,141.64-89.75,166" transform="translate(-345.46 -300.61)"/><path class="cls-2" d="M739.66,304.61c16.94,30.93,47.57,97.31,43.6,184.35-6.59,144.2-103.08,233.62-123.41,251.65" transform="translate(-345.46 -300.61)"/><path class="cls-2" d="M604.27,304.61A541.23,541.23,0,0,1,785.42,456.32" transform="translate(-345.46 -300.61)"/><path class="cls-2" d="M785.42,669a475.62,475.62,0,0,1-146.48,71.63" transform="translate(-345.46 -300.61)"/><path class="cls-2" d="M654.75,740.61a322.13,322.13,0,0,0,67.82-22.16c19.63-8.93,46.22-23.4,59.45-35.16,1.1-1,3.12-2.83,3.4-2.58.86.77-13,21.3-33.27,38.25A154.16,154.16,0,0,1,718,740.61" transform="translate(-345.46 -300.61)"/><path class="cls-2" d="M743.48,740.61a73.12,73.12,0,0,0,41.94-41.54" transform="translate(-345.46 -300.61)"/></svg>