<svg width="100" height="100" viewBox="0 0 100 100" fill="none" xmlns="http://www.w3.org/2000/svg">
<path d="M95.8331 29.1666C88.4887 28.7625 81.2025 30.6715 74.9997 34.6249C73.4997 32.9166 71.9581 31.2083 70.3331 29.5833L69.1247 28.4583L69.7081 27.9583C71.7457 26.2091 73.1978 23.8771 73.8683 21.2767C74.5389 18.6764 74.3957 15.933 73.4581 13.4166C72.1035 10.5757 69.9532 8.18922 67.2682 6.54716C64.5832 4.9051 61.4791 4.07809 58.3331 4.16658V12.4999C59.8156 12.4793 61.2767 12.8545 62.5658 13.587C63.8549 14.3194 64.9252 15.3825 65.6664 16.6666C66.3747 18.3333 65.6664 20.1666 63.7081 22.1249L62.7497 22.9999C58.4036 19.3785 53.6323 16.3002 48.5414 13.8333C37.9997 9.08325 32.5831 11.2916 29.9164 13.8333C29.1038 14.6478 28.4534 15.6093 27.9997 16.6666L27.2497 18.8749L21.2497 36.9583C25.9997 48.7916 37.4997 69.8333 62.4997 78.9166L83.3331 71.9999C84.0356 71.7384 84.6546 71.2921 85.1247 70.7083L85.9997 69.9583C91.9581 63.9583 88.1247 52.4166 80.1247 41.2083C84.8749 38.436 90.3446 37.1447 95.8331 37.4999V29.1666ZM80.0414 64.0416H79.7914C76.9164 65.5833 64.9997 61.6666 51.4997 48.1666C50.0831 46.7499 48.7497 45.3749 47.5414 43.9999C47.1247 43.5416 46.7497 43.0416 46.3331 42.5416L44.1247 39.8749L42.9581 38.2499C42.3747 37.4583 41.7914 36.6666 41.2914 35.9166C40.7914 35.1666 40.6247 34.8333 40.2914 34.2916C39.9581 33.7499 39.3747 32.8749 38.9997 32.1666C38.6247 31.4583 38.4581 31.1666 38.2081 30.6249C37.9581 30.0833 37.4997 29.4583 37.2497 28.8749C36.9997 28.2916 36.8747 27.9166 36.6664 27.4583C36.4581 26.9999 36.2081 26.3333 36.0414 25.7916C35.8747 25.2499 35.8331 24.9999 35.7497 24.5833C35.6664 24.1666 35.4997 23.5833 35.4164 23.1666C35.3964 22.8336 35.3964 22.4996 35.4164 22.1666C35.3755 21.8066 35.3755 21.4432 35.4164 21.0833L35.8747 19.7916C36.5831 19.0416 39.6664 18.8333 45.1664 21.3333C48.842 23.099 52.3198 25.25 55.5414 27.7499C53.7851 28.525 51.9125 29.0037 49.9997 29.1666V37.4999C54.4263 37.2488 58.7213 35.903 62.4997 33.5833L64.5414 35.4999C66.3747 37.2916 67.9997 39.0833 69.4997 40.7916C66.9874 45.0755 65.9895 50.08 66.6664 54.9999L74.9997 53.3749C74.7181 51.8041 74.7181 50.1957 74.9997 48.6249C80.3747 56.8333 81.3747 62.7499 80.0414 64.0416ZM18.3331 45.8333L9.0414 73.7499C8.37077 75.7995 8.19469 77.9787 8.52755 80.1094C8.86042 82.2401 9.69278 84.2618 10.9566 86.0092C12.2204 87.7566 13.8798 89.1801 15.7991 90.1634C17.7184 91.1466 19.8432 91.6618 21.9997 91.6666C23.4174 91.6528 24.8238 91.4137 26.1664 90.9583L53.3331 81.9166C38.0003 74.086 25.6928 61.3975 18.3331 45.8333Z" fill="#8F00FF"/>
</svg>