<svg width="101" height="100" viewBox="0 0 101 100" fill="none" xmlns="http://www.w3.org/2000/svg">
<path d="M50.4998 6.25C41.8468 6.25 33.3882 8.81589 26.1936 13.6232C18.9989 18.4305 13.3914 25.2633 10.08 33.2576C6.76871 41.2519 5.90232 50.0485 7.59042 58.5352C9.27852 67.0219 13.4453 74.8174 19.5639 80.9359C25.6824 87.0545 33.4779 91.2213 41.9646 92.9094C50.4512 94.5975 59.2479 93.7311 67.2422 90.4197C75.2364 87.1084 82.0693 81.5008 86.8766 74.3062C91.6839 67.1115 94.2498 58.6529 94.2498 50C94.2498 38.3968 89.6404 27.2688 81.4357 19.0641C73.231 10.8594 62.103 6.25 50.4998 6.25ZM73.7717 52.7969L36.2717 71.5469C35.7951 71.785 35.2656 71.8974 34.7334 71.8733C34.2012 71.8492 33.684 71.6894 33.2309 71.4092C32.7779 71.1289 32.4039 70.7375 32.1447 70.2721C31.8855 69.8067 31.7495 69.2827 31.7498 68.75V31.25C31.7501 30.7175 31.8864 30.194 32.1459 29.729C32.4053 29.264 32.7793 28.873 33.2323 28.5931C33.6852 28.3133 34.2022 28.1538 34.7342 28.1298C35.2661 28.1059 35.7953 28.2182 36.2717 28.4562L73.7717 47.2062C74.29 47.4661 74.7259 47.865 75.0305 48.3584C75.3351 48.8517 75.4964 49.4202 75.4964 50C75.4964 50.5798 75.3351 51.1483 75.0305 51.6416C74.7259 52.135 74.29 52.5339 73.7717 52.7937V52.7969Z" fill="#96363A"/>
</svg>
